<svg width="995" height="415" xmlns="http://www.w3.org/2000/svg">

 <g>
  <title>Layer 1</title>
  <path stroke="null" id="svg_1" fill="#016fd0" d="m0,-0.28573l996.40587,0l0,224.84853l-1.27847,61.73675l1.27847,-0.85407l0,130.78578l-996.40587,0l0,-211.96282l0.14455,-29.10386l-0.14455,0.11185l0,-175.56215z"/>
  <path id="svg_2" fill="#fff" d="m193.64,393.81329l0,-156.61l165.82,0l17.791,23.193l18.38,-23.193l601.886,0l0,145.811s-15.74,10.643 -33.945,10.8l-333.277,0l-20.058,-24.688l0,24.688l-65.73,0l0,-42.142s-8.979,5.882 -28.39,5.882l-22.373,0l0,36.26l-99.52,0l-17.766,-23.69l-18.038,23.69l-164.78,-0.001zm-193.64,-274.645l37.393,-87.177l64.668,0l21.22,48.833l0,-48.833l80.388,0l12.633,35.295l12.247,-35.295l360.858,0l0,17.744s18.97,-17.744 50.146,-17.744l117.085,0.41l20.854,48.193l0,-48.603l67.273,0l18.515,27.683l0,-27.683l67.89,0l0,156.61l-67.89,0l-17.744,-27.774l0,27.773l-98.838,0l-9.94,-24.687l-26.57,0l-9.779,24.687l-67.028,0c-26.826,0 -43.974,-17.381 -43.974,-17.381l0,17.381l-101.064,0l-20.058,-24.686l0,24.687l-375.804,0l-9.933,-24.687l-26.488,0l-9.86,24.686l-46.2,0l0,-69.432z"/>
  <path id="svg_3" fill="#016fd0" d="m50.628,51.29829l-50.435,117.264l32.836,0l9.306,-23.482l54.1,0l9.257,23.482l33.56,0l-50.389,-117.264l-38.235,0zm18.66,27.29l16.49,41.034l-33.028,0l16.538,-41.034zm73.435,89.954l0,-117.264l46.661,0.173l27.14,75.605l26.49,-75.778l46.289,0l0,117.264l-29.316,0l0,-86.405l-31.076,86.405l-25.71,0l-31.162,-86.405l0,86.405l-29.316,0zm166.638,0l0,-117.264l95.663,0l0,26.23l-66.038,0l0,20.058l64.495,0l0,24.688l-64.495,0l0,20.83l66.038,0l0,25.458l-95.663,0zm112.636,-117.244l0,117.264l29.316,0l0,-41.66l12.343,0l35.15,41.66l35.826,0l-38.574,-43.203c15.831,-1.336 32.161,-14.923 32.161,-36.018c0,-24.676 -19.368,-38.043 -40.984,-38.043l-65.238,0zm29.316,26.23l33.51,0c8.04,0 13.887,6.288 13.887,12.343c0,7.79 -7.577,12.344 -13.452,12.344l-33.945,0l0,-24.687zm118.807,91.014l-29.933,0l0,-117.264l29.933,0l0,117.264zm70.975,0l-6.46,0c-31.262,0 -50.243,-24.63 -50.243,-58.15c0,-34.349 18.768,-59.114 58.246,-59.114l32.402,0l0,27.773l-33.586,0c-16.026,0 -27.36,12.507 -27.36,31.63c0,22.71 12.96,32.248 31.63,32.248l7.715,0l-12.344,25.613zm63.792,-117.244l-50.435,117.264l32.836,0l9.305,-23.482l54.1,0l9.258,23.482l33.559,0l-50.387,-117.264l-38.236,0zm18.66,27.29l16.49,41.034l-33.029,0l16.539,-41.034zm73.386,89.954l0,-117.264l37.272,0l47.59,73.676l0,-73.676l29.317,0l0,117.264l-36.067,0l-48.796,-75.604l0,75.604l-29.316,0zm-583.234,205.212l0,-117.264l95.662,0l0,26.23l-66.038,0l0,20.059l64.495,0l0,24.687l-64.495,0l0,20.83l66.038,0l0,25.458l-95.662,0zm468.748,0l0,-117.264l95.662,0l0,26.23l-66.038,0l0,20.059l64.187,0l0,24.687l-64.188,0l0,20.83l66.038,0l0,25.458l-95.661,0zm-369.373,0l46.578,-57.908l-47.687,-59.356l36.935,0l28.4,36.693l28.497,-36.693l35.488,0l-47.06,58.632l46.663,58.632l-36.928,0l-27.576,-36.114l-26.905,36.114l-36.405,0zm131.296,-117.244l0,117.264l30.087,0l0,-37.03l30.859,0c26.111,0 45.903,-13.853 45.903,-40.792c0,-22.317 -15.523,-39.442 -42.094,-39.442l-64.755,0zm30.087,26.52l32.498,0c8.436,0 14.465,5.17 14.465,13.5c0,7.826 -5.999,13.501 -14.561,13.501l-32.402,0l0,-27.001zm89.491,-26.54l0,117.264l29.316,0l0,-41.66l12.344,0l35.15,41.66l35.825,0l-38.573,-43.202c15.83,-1.336 32.16,-14.924 32.16,-36.019c0,-24.676 -19.368,-38.043 -40.984,-38.043l-65.238,0zm29.316,26.23l33.511,0c8.039,0 13.887,6.288 13.887,12.344c0,7.79 -7.577,12.343 -13.453,12.343l-33.945,0l0,-24.687zm198.423,91.034l0,-25.458l58.671,0c8.681,0 12.44,-4.692 12.44,-9.837c0,-4.93 -3.747,-9.913 -12.44,-9.913l-26.513,0c-23.045,0 -35.88,-14.04 -35.88,-35.121c0,-18.803 11.753,-36.935 46,-36.935l57.088,0l-12.343,26.385l-49.375,0c-9.438,0 -12.343,4.952 -12.343,9.682c0,4.86 3.59,10.222 10.8,10.222l27.773,0c25.69,0 36.838,14.572 36.838,33.655c0,20.517 -12.422,37.32 -38.236,37.32l-62.48,0zm107.597,0l0,-25.458l58.67,0c8.682,0 12.44,-4.692 12.44,-9.837c0,-4.93 -3.746,-9.913 -12.44,-9.913l-26.512,0c-23.046,0 -35.88,-14.04 -35.88,-35.121c0,-18.803 11.753,-36.935 45.999,-36.935l57.089,0l-12.344,26.385l-49.374,0c-9.438,0 -12.344,4.952 -12.344,9.682c0,4.86 3.59,10.222 10.801,10.222l27.773,0c25.69,0 36.838,14.572 36.838,33.655c0,20.517 -12.422,37.32 -38.236,37.32l-62.48,0z"/>
 </g>
</svg>