<svg width="20" height="18" viewBox="0 0 20 18" fill="none" xmlns="http://www.w3.org/2000/svg">
<path d="M19.756 2.345C19.565 2.126 19.29 2 19 2H5.181L4.986 0.836C4.906 0.354 4.489 0 4 0H1.75C1.197 0 0.75 0.447 0.75 1C0.75 1.553 1.197 2 1.75 2H3.153L5.013 13.164C5.021 13.209 5.044 13.246 5.058 13.288C5.074 13.341 5.087 13.391 5.112 13.439C5.144 13.505 5.187 13.561 5.232 13.618C5.263 13.657 5.291 13.696 5.327 13.73C5.385 13.784 5.452 13.822 5.52 13.86C5.558 13.881 5.591 13.909 5.632 13.925C5.748 13.972 5.87 14 5.999 14C6 14 17 14 17 14C17.553 14 18 13.553 18 13C18 12.447 17.553 12 17 12H6.847L6.681 11H18C18.498 11 18.92 10.634 18.99 10.142L19.99 3.142C20.031 2.854 19.945 2.563 19.756 2.345ZM17.847 4L17.562 6H14V4H17.847ZM13 4V6H10V4H13ZM13 7V9H10V7H13ZM9 4V6H6C5.947 6 5.899 6.015 5.852 6.03L5.514 4H9ZM6.014 7H9V9H6.347L6.014 7ZM14 9V7H17.418L17.133 9H14Z" fill="#CC0605"/>
<path d="M7.5 18C8.32843 18 9 17.3284 9 16.5C9 15.6716 8.32843 15 7.5 15C6.67157 15 6 15.6716 6 16.5C6 17.3284 6.67157 18 7.5 18Z" fill="#CC0605"/>
<path d="M16.5 18C17.3284 18 18 17.3284 18 16.5C18 15.6716 17.3284 15 16.5 15C15.6716 15 15 15.6716 15 16.5C15 17.3284 15.6716 18 16.5 18Z" fill="#CC0605"/>
</svg>
