<svg width="95" height="95" viewBox="0 0 95 95" fill="none" xmlns="http://www.w3.org/2000/svg">
<path d="M55.931 47.463L94.306 9.09C95.132 8.263 95.132 6.923 94.306 6.096L88.833 0.62C88.436 0.224 87.896 0 87.335 0C86.773 0 86.234 0.224 85.837 0.62L47.463 38.994L9.08896 0.62C8.29396 -0.175 6.88696 -0.174 6.09396 0.62L0.621959 6.096C-0.205041 6.923 -0.205041 8.263 0.621959 9.09L38.996 47.463L0.621959 85.836C-0.205041 86.663 -0.205041 88.003 0.621959 88.83L6.09496 94.306C6.49196 94.702 7.03096 94.926 7.59296 94.926C8.15496 94.926 8.69296 94.702 9.08996 94.306L47.464 55.932L85.838 94.306C86.235 94.702 86.775 94.926 87.336 94.926C87.897 94.926 88.437 94.702 88.834 94.306L94.307 88.83C95.133 88.003 95.133 86.663 94.307 85.836L55.931 47.463Z" fill="#717070"/>
</svg>
