<svg width="286" height="95" viewBox="0 0 286 95" fill="none" xmlns="http://www.w3.org/2000/svg">
<path d="M31.9428 31.9689C26.3003 37.6498 27.1396 54.3698 32.6868 59.8794C35.1222 62.4235 38.5191 61.9953 41.721 58.7716C45.1903 55.2787 45.69 51.1824 48.4696 48.3838C51.2777 45.5565 55.3776 45.0219 58.8113 41.5648C61.9464 38.4083 62.4169 34.9456 59.9211 32.4666C54.3178 27.0207 37.5875 26.2857 31.9428 31.9689ZM20.5764 41.609C17.3612 39.8901 13.4666 40.5903 11.8974 43.1722C10.3283 45.7541 11.6638 49.2367 14.8778 50.9539C18.0987 52.6785 21.9933 51.9784 23.5625 49.3964C25.1316 46.8145 23.7851 43.3316 20.5764 41.609ZM25.109 34.0679C26.722 31.2807 24.8911 27.2584 20.8786 24.9608C16.8661 22.6632 12.4839 23.2344 10.7982 25.9666C9.18521 28.7537 11.0161 32.7761 15.0286 35.0737C18.9781 37.3059 23.4921 36.8697 25.109 34.0679ZM43.0169 11.8435C40.5101 13.4942 39.772 17.3295 41.5127 20.5329C43.2541 23.737 46.744 25.0534 49.3152 23.4667C51.822 21.8161 52.5509 17.9901 50.8194 14.7774C49.0722 11.5733 45.5227 10.3227 43.0169 11.8435ZM33.9954 25.1209C36.7168 23.5441 37.1931 18.9668 34.9327 15.0339C32.6723 11.1011 28.5732 9.23289 25.797 10.8655C23.0756 12.4423 22.5993 17.0197 24.8597 20.9525C27.118 24.8875 31.2189 26.7568 33.9954 25.1209Z" fill="#BAB4AC"/>
<path d="M124.412 58.5061C118.326 53.3024 101.715 55.3848 96.634 61.3269C94.2784 63.9451 94.9584 67.3007 98.4117 70.2536C102.153 73.453 106.275 73.6462 109.273 76.2097C112.302 78.7994 113.14 82.8481 116.844 86.0147C120.225 88.906 123.713 89.1172 125.999 86.4437C131.013 80.4503 130.499 63.7117 124.412 58.5061ZM113.952 47.8893C115.426 44.555 114.438 40.7233 111.746 39.3509C109.055 37.9784 105.681 39.5696 104.208 42.9026C102.728 46.243 103.717 50.0747 106.408 51.4471C109.1 52.8196 112.473 51.2174 113.952 47.8893ZM121.809 51.8476C124.709 53.2485 128.584 51.1231 130.576 46.9506C132.568 42.7781 131.672 38.4506 128.822 36.9731C125.923 35.5722 122.048 37.6976 120.055 41.8701C118.124 45.9749 118.895 50.4439 121.809 51.8476ZM145.306 68.0503C143.473 65.6734 139.594 65.223 136.529 67.1975C133.463 69.1728 132.41 72.751 134.184 75.1969C136.017 77.5738 139.887 78.0156 142.961 76.0496C146.026 74.0687 147.009 70.4358 145.306 68.0503ZM131.393 60.0428C133.169 62.6392 137.769 62.7733 141.522 60.2262C145.276 57.6792 146.833 53.4522 144.999 50.8054C143.223 48.209 138.623 48.075 134.87 50.6221C131.114 53.1672 129.555 57.3959 131.393 60.0428Z" fill="#BAB4AC"/>
<path d="M253.382 32.8293C246.493 28.748 230.487 33.6521 226.502 40.3785C224.631 43.3623 225.877 46.5512 229.786 48.8672C234.021 51.3766 238.115 50.859 241.509 52.8696C244.937 54.9007 246.459 58.7453 250.651 61.2289C254.478 63.4966 257.951 63.1056 259.744 60.0792C263.654 53.314 260.273 36.9121 253.382 32.8293ZM241.254 24.1665C242.134 20.6285 240.503 17.0235 237.615 16.1337C234.728 15.2438 231.678 17.3907 230.799 20.9272C229.915 24.4721 231.547 28.0771 234.434 28.9669C237.321 29.8568 240.369 27.6991 241.254 24.1665ZM249.675 26.7166C252.772 27.5988 256.224 24.8395 257.471 20.3868C258.717 15.9342 257.091 11.8248 254.029 10.8588C250.932 9.97662 247.48 12.7359 246.234 17.1886C245.036 21.5641 246.563 25.8342 249.675 26.7166ZM275.605 38.6435C273.391 36.6167 269.492 36.8393 266.812 39.3108C264.131 41.7831 263.708 45.489 265.876 47.5939C268.09 49.6207 271.978 49.3915 274.669 46.9267C277.348 44.4488 277.693 40.7011 275.605 38.6435ZM260.524 33.1443C262.719 35.3972 267.274 34.7393 270.534 31.5855C273.794 28.4317 274.603 24 272.341 21.7077C270.146 19.4547 265.591 20.1126 262.331 23.2664C259.068 26.4187 258.259 30.8523 260.524 33.1443Z" fill="#BAB4AC"/>
<path d="M32.3906 33.1406C32.3906 32.3333 32.5339 31.6693 32.8203 31.1484C33.1328 30.6276 33.5495 30.2109 34.0703 29.8984C34.5911 29.5599 35.1641 29.3125 35.7891 29.1563C36.4401 29 37.1042 28.8958 37.7812 28.8438C38.4844 28.7656 39.1615 28.7396 39.8125 28.7656C40.4635 28.7656 41.0625 28.7656 41.6094 28.7656C42.6771 28.7656 43.7448 28.8698 44.8125 29.0781C45.8802 29.2865 46.8177 29.651 47.625 30.1719C48.4583 30.6927 49.1354 31.3958 49.6562 32.2813C50.1771 33.1406 50.4375 34.2214 50.4375 35.5234C50.4375 36.6693 50.2031 37.8151 49.7344 38.9609C49.2917 40.0807 48.7057 41.1615 47.9766 42.2031C47.2734 43.2188 46.4661 44.1563 45.5547 45.0156C44.6432 45.849 43.7318 46.5651 42.8203 47.1641C41.9349 47.763 41.0755 48.2318 40.2422 48.5703C39.4349 48.9089 38.7578 49.0391 38.2109 48.9609C37.8984 49.9766 37.7031 51.0703 37.625 52.2422C37.5729 53.388 37.5599 54.5208 37.5859 55.6406C37.612 56.7344 37.651 57.7891 37.7031 58.8047C37.7552 59.7943 37.7031 60.6536 37.5469 61.3828C37.4167 62.0859 37.1562 62.6198 36.7656 62.9844C36.375 63.3229 35.776 63.4271 34.9688 63.2969C34.7344 61.4479 34.5521 59.5729 34.4219 57.6719C34.3177 55.7708 34.2266 53.8828 34.1484 52.0078C34.0703 50.1328 33.9922 48.3099 33.9141 46.5391C33.862 44.7422 33.7708 43.0365 33.6406 41.4219C33.5365 39.8073 33.3802 38.2969 33.1719 36.8906C32.9635 35.4844 32.7031 34.2344 32.3906 33.1406ZM42.0391 32.125C41.6484 32.125 41.1667 32.138 40.5938 32.1641C40.0208 32.1901 39.4609 32.2813 38.9141 32.4375C38.3932 32.5677 37.9505 32.8151 37.5859 33.1797C37.2214 33.5182 37.0391 34.013 37.0391 34.6641V44.8984C38.1068 44.8984 39.2396 44.612 40.4375 44.0391C41.6354 43.4661 42.7292 42.737 43.7188 41.8516C44.7083 40.9661 45.5286 39.9635 46.1797 38.8438C46.8307 37.724 47.1562 36.6172 47.1562 35.5234C47.1562 34.7161 47 34.0911 46.6875 33.6484C46.401 33.2057 46.0104 32.8672 45.5156 32.6328C45.0469 32.3984 44.513 32.2552 43.9141 32.2031C43.3151 32.151 42.6901 32.125 42.0391 32.125ZM135.28 62.3203C135.41 61.6953 135.735 61.1875 136.256 60.7969C136.803 60.3802 137.415 60.0026 138.092 59.6641C138.795 59.3255 139.524 59.013 140.28 58.7266C141.035 58.4141 141.725 58.0885 142.35 57.75C143.001 57.4115 143.535 57.0208 143.952 56.5781C144.368 56.1094 144.577 55.5495 144.577 54.8984C144.577 54.0651 144.355 53.375 143.912 52.8281C143.496 52.2813 142.923 51.8125 142.194 51.4219C141.491 51.0313 140.683 50.7057 139.772 50.4453C138.86 50.1849 137.923 49.9245 136.959 49.6641C136.022 49.3776 135.097 49.0781 134.186 48.7656C133.274 48.4271 132.454 48.0104 131.725 47.5156C131.022 47.0208 130.449 46.4219 130.006 45.7188C129.59 45.0156 129.381 44.1432 129.381 43.1016C129.381 42.2422 129.551 41.4349 129.889 40.6797C130.254 39.8984 130.722 39.1693 131.295 38.4922C131.894 37.7891 132.571 37.151 133.327 36.5781C134.108 36.0052 134.915 35.5234 135.748 35.1328C136.608 34.7422 137.467 34.4427 138.327 34.2344C139.186 34 139.98 33.8828 140.709 33.8828H141.139C141.373 33.9609 141.686 34.0911 142.077 34.2734C142.467 34.4557 142.845 34.638 143.209 34.8203C143.574 34.9766 143.886 35.1328 144.147 35.2891C144.407 35.4193 144.537 35.4974 144.537 35.5234V36.4219C144.043 36.474 143.405 36.5781 142.623 36.7344C141.842 36.8646 141.022 37.0469 140.162 37.2813C139.303 37.5156 138.431 37.8151 137.545 38.1797C136.66 38.5182 135.866 38.9219 135.162 39.3906C134.459 39.8594 133.886 40.4063 133.444 41.0313C133.001 41.6302 132.78 42.3203 132.78 43.1016C132.78 44.2214 133.17 45.1068 133.952 45.7578C134.733 46.3828 135.709 46.9036 136.881 47.3203C138.053 47.737 139.329 48.1146 140.709 48.4531C142.116 48.7656 143.405 49.1563 144.577 49.625C145.748 50.0677 146.725 50.6667 147.506 51.4219C148.287 52.151 148.678 53.1406 148.678 54.3906C148.678 55.0677 148.47 55.7839 148.053 56.5391C147.662 57.2682 147.129 57.9974 146.452 58.7266C145.801 59.4297 145.058 60.1068 144.225 60.7578C143.392 61.4089 142.532 61.9818 141.647 62.4766C140.787 62.9453 139.941 63.3359 139.108 63.6484C138.274 63.9349 137.532 64.0781 136.881 64.0781C136.673 64.0781 136.452 64.0521 136.217 64C135.983 63.9479 135.774 63.8698 135.592 63.7656C135.436 63.6354 135.306 63.4531 135.202 63.2188C135.123 62.9844 135.149 62.6849 135.28 62.3203Z" fill="#CC0605"/>
<path d="M54.1969 33.0234C54.0667 33.0234 53.8714 32.9974 53.6109 32.9453C53.3766 32.8672 53.1292 32.7891 52.8687 32.7109C52.6083 32.6068 52.3609 32.5156 52.1266 32.4375C51.8922 32.3333 51.7359 32.2552 51.6578 32.2031C51.6318 32.151 51.6187 32.099 51.6187 32.0469C51.5927 31.9948 51.5797 31.9297 51.5797 31.8516C51.5797 31.487 51.7229 31.1745 52.0094 30.9141C52.2958 30.6536 52.6214 30.4453 52.9859 30.2891C53.3766 30.1068 53.7542 29.9766 54.1187 29.8984C54.4833 29.7943 54.7698 29.7292 54.9781 29.7031H55.4469H55.8375C56.4625 29.7552 57.2568 29.8333 58.2203 29.9375C59.1839 30.0417 60.1995 30.1589 61.2672 30.2891C62.3609 30.3932 63.4547 30.5104 64.5484 30.6406C65.6682 30.7448 66.6708 30.862 67.5562 30.9922C68.4677 31.0964 69.2229 31.1875 69.8219 31.2656C70.4469 31.3177 70.8115 31.3438 70.9156 31.3438C71.124 31.3698 71.3844 31.4219 71.6969 31.5C72.0354 31.5521 72.374 31.6563 72.7125 31.8125C73.051 31.9427 73.3635 32.112 73.65 32.3203C73.9365 32.5026 74.1448 32.737 74.275 33.0234C74.0667 33.4401 73.8844 33.7656 73.7281 34C73.5719 34.2083 73.4026 34.3776 73.2203 34.5078C73.038 34.612 72.8427 34.6641 72.6344 34.6641C72.4521 34.6641 72.2177 34.6641 71.9312 34.6641C70.8375 34.6641 69.7307 34.625 68.6109 34.5469C67.5172 34.4688 66.4234 34.3906 65.3297 34.3125C64.2359 34.2344 63.1292 34.1563 62.0094 34.0781C60.9156 34 59.8089 33.9609 58.6891 33.9609C58.6891 34.4297 58.624 35.1328 58.4937 36.0703C58.3896 37.0078 58.2984 37.9974 58.2203 39.0391C58.1682 40.0807 58.1943 41.1224 58.2984 42.1641C58.4286 43.1797 58.7281 44.0391 59.1969 44.7422C60.1083 44.1953 61.0589 43.9089 62.0484 43.8828C63.038 43.8568 64.0406 43.8438 65.0562 43.8438C65.499 43.8438 66.0589 43.8438 66.7359 43.8438C67.413 43.8438 68.0641 43.9219 68.6891 44.0781C69.3401 44.2344 69.887 44.4948 70.3297 44.8594C70.7724 45.224 70.9937 45.7708 70.9937 46.5C70.9937 47.0208 70.8896 47.4115 70.6812 47.6719C70.4729 47.9323 69.9911 48.0625 69.2359 48.0625C69.1578 48.0625 68.9885 48.0234 68.7281 47.9453C68.4937 47.8672 68.2333 47.776 67.9469 47.6719C67.6865 47.5677 67.4391 47.4766 67.2047 47.3984C66.9703 47.3203 66.8141 47.2813 66.7359 47.2813C66.7099 47.2813 66.6057 47.2813 66.4234 47.2813C66.2672 47.2552 66.0719 47.2422 65.8375 47.2422C65.6031 47.2422 65.3687 47.2422 65.1344 47.2422C64.926 47.2161 64.7568 47.2031 64.6266 47.2031C64.0276 47.2031 63.4417 47.2422 62.8687 47.3203C62.3219 47.3984 61.8401 47.5547 61.4234 47.7891C61.0068 48.0234 60.6682 48.362 60.4078 48.8047C60.1734 49.2474 60.0562 49.8203 60.0562 50.5234C60.0562 50.7578 60.0823 51.1615 60.1344 51.7344C60.1865 52.3073 60.2516 52.9453 60.3297 53.6484C60.4339 54.3255 60.5641 55.0286 60.7203 55.7578C60.8766 56.487 61.0849 57.1641 61.3453 57.7891C61.6057 58.388 61.8922 58.8958 62.2047 59.3125C62.5432 59.7031 62.9469 59.8984 63.4156 59.8984C63.4677 59.8984 63.5979 59.8854 63.8062 59.8594C64.0146 59.8333 64.1448 59.8203 64.1969 59.8203C65.0823 59.2214 65.9677 58.5703 66.8531 57.8672C67.7646 57.1641 68.7021 56.513 69.6656 55.9141C70.6292 55.2891 71.6318 54.7682 72.6734 54.3516C73.7151 53.9089 74.7958 53.6875 75.9156 53.6875V55.6016C75.9156 55.7057 75.6552 55.9922 75.1344 56.4609C74.6396 56.9297 73.9755 57.4766 73.1422 58.1016C72.3349 58.7266 71.4234 59.3906 70.4078 60.0938C69.3922 60.7969 68.3766 61.4479 67.3609 62.0469C66.3453 62.6198 65.3687 63.1016 64.4312 63.4922C63.5198 63.8828 62.7516 64.0781 62.1266 64.0781C61.2411 64.0781 60.4469 63.6875 59.7437 62.9063C59.0667 62.099 58.4547 61.0443 57.9078 59.7422C57.3609 58.4141 56.9052 56.8906 56.5406 55.1719C56.176 53.4531 55.8505 51.6823 55.5641 49.8594C55.3036 48.0365 55.0823 46.2266 54.9 44.4297C54.7437 42.6068 54.6135 40.9271 54.5094 39.3906C54.4052 37.8542 54.3271 36.526 54.275 35.4063C54.249 34.2604 54.2229 33.4661 54.1969 33.0234ZM93.9328 40.5625C93.8286 40.1979 93.6203 39.9505 93.3078 39.8203C93.0214 39.6901 92.6958 39.625 92.3312 39.625C91.9927 39.599 91.6542 39.612 91.3156 39.6641C90.9771 39.7161 90.7167 39.7422 90.5344 39.7422C90.0917 39.7161 89.3234 39.6641 88.2297 39.5859C87.1359 39.5078 85.951 39.4297 84.675 39.3516C83.425 39.2474 82.2531 39.1563 81.1594 39.0781C80.0656 38.974 79.2974 38.9089 78.8547 38.8828C78.8547 38.8307 78.8417 38.7005 78.8156 38.4922C78.7896 38.2839 78.7766 38.1406 78.7766 38.0625C78.7766 37.6979 78.8026 37.3724 78.8547 37.0859C78.9328 36.7995 79.1932 36.5781 79.6359 36.4219C82.0839 36.474 84.4927 36.4609 86.8625 36.3828C89.2583 36.3047 91.6411 36.2005 94.0109 36.0703C96.4068 35.9141 98.7896 35.7708 101.159 35.6406C103.555 35.5104 105.964 35.4453 108.386 35.4453C108.386 36.4349 108.152 37.1641 107.683 37.6328C107.214 38.0755 106.628 38.375 105.925 38.5313C105.248 38.6875 104.493 38.7526 103.659 38.7266C102.826 38.7005 102.019 38.7135 101.237 38.7656C100.482 38.8177 99.8052 38.974 99.2062 39.2344C98.6333 39.4688 98.2557 39.9115 98.0734 40.5625C98.0474 40.7188 98.0214 41.0182 97.9953 41.4609C97.9693 41.9036 97.9432 42.3724 97.9172 42.8672C97.9172 43.362 97.9042 43.8307 97.8781 44.2734C97.8781 44.6901 97.8781 44.9896 97.8781 45.1719C97.8781 46.6563 98.0604 48.1276 98.425 49.5859C98.8156 51.0182 99.2323 52.4505 99.675 53.8828C100.144 55.2891 100.56 56.7083 100.925 58.1406C101.316 59.5469 101.511 60.9792 101.511 62.4375C101.511 63.5313 100.886 64.0781 99.6359 64.0781C98.8807 64.0781 98.2036 63.5573 97.6047 62.5156C97.0318 61.474 96.524 60.1458 96.0812 58.5313C95.6646 56.9167 95.313 55.1589 95.0266 53.2578C94.7661 51.3568 94.5448 49.5339 94.3625 47.7891C94.2062 46.0443 94.0891 44.5078 94.0109 43.1797C93.9589 41.8516 93.9328 40.9792 93.9328 40.5625ZM165.836 40.5625C165.732 40.1979 165.523 39.9505 165.211 39.8203C164.924 39.6901 164.599 39.625 164.234 39.625C163.896 39.599 163.557 39.612 163.219 39.6641C162.88 39.7161 162.62 39.7422 162.438 39.7422C161.995 39.7161 161.227 39.6641 160.133 39.5859C159.039 39.5078 157.854 39.4297 156.578 39.3516C155.328 39.2474 154.156 39.1563 153.062 39.0781C151.969 38.974 151.201 38.9089 150.758 38.8828C150.758 38.8307 150.745 38.7005 150.719 38.4922C150.693 38.2839 150.68 38.1406 150.68 38.0625C150.68 37.6979 150.706 37.3724 150.758 37.0859C150.836 36.7995 151.096 36.5781 151.539 36.4219C153.987 36.474 156.396 36.4609 158.766 36.3828C161.161 36.3047 163.544 36.2005 165.914 36.0703C168.31 35.9141 170.693 35.7708 173.062 35.6406C175.458 35.5104 177.867 35.4453 180.289 35.4453C180.289 36.4349 180.055 37.1641 179.586 37.6328C179.117 38.0755 178.531 38.375 177.828 38.5313C177.151 38.6875 176.396 38.7526 175.562 38.7266C174.729 38.7005 173.922 38.7135 173.141 38.7656C172.385 38.8177 171.708 38.974 171.109 39.2344C170.536 39.4688 170.159 39.9115 169.977 40.5625C169.951 40.7188 169.924 41.0182 169.898 41.4609C169.872 41.9036 169.846 42.3724 169.82 42.8672C169.82 43.362 169.807 43.8307 169.781 44.2734C169.781 44.6901 169.781 44.9896 169.781 45.1719C169.781 46.6563 169.964 48.1276 170.328 49.5859C170.719 51.0182 171.135 52.4505 171.578 53.8828C172.047 55.2891 172.464 56.7083 172.828 58.1406C173.219 59.5469 173.414 60.9792 173.414 62.4375C173.414 63.5313 172.789 64.0781 171.539 64.0781C170.784 64.0781 170.107 63.5573 169.508 62.5156C168.935 61.474 168.427 60.1458 167.984 58.5313C167.568 56.9167 167.216 55.1589 166.93 53.2578C166.669 51.3568 166.448 49.5339 166.266 47.7891C166.109 46.0443 165.992 44.5078 165.914 43.1797C165.862 41.8516 165.836 40.9792 165.836 40.5625ZM182.095 53.1406C182.095 51.8125 182.265 50.4714 182.603 49.1172C182.968 47.737 183.462 46.4219 184.087 45.1719C184.739 43.9219 185.52 42.763 186.431 41.6953C187.343 40.6016 188.345 39.6641 189.439 38.8828C190.559 38.0755 191.77 37.4505 193.072 37.0078C194.374 36.5391 195.741 36.3047 197.173 36.3047C198.606 36.3047 199.843 36.5911 200.884 37.1641C201.952 37.7109 202.837 38.4531 203.541 39.3906C204.244 40.3281 204.765 41.4089 205.103 42.6328C205.442 43.8307 205.611 45.0547 205.611 46.3047C205.611 48.4922 205.285 50.6536 204.634 52.7891C203.983 54.8984 203.02 56.7995 201.744 58.4922C200.468 60.1589 198.879 61.513 196.978 62.5547C195.103 63.5703 192.942 64.0781 190.494 64.0781C189.035 64.0781 187.772 63.7526 186.705 63.1016C185.663 62.4245 184.791 61.5651 184.087 60.5234C183.41 59.4557 182.903 58.2839 182.564 57.0078C182.252 55.7057 182.095 54.4167 182.095 53.1406ZM185.416 54C185.416 54.7031 185.533 55.4453 185.767 56.2266C186.002 57.0078 186.327 57.724 186.744 58.375C187.16 59.026 187.681 59.5729 188.306 60.0156C188.957 60.4583 189.686 60.6797 190.494 60.6797C192.239 60.6797 193.827 60.2891 195.259 59.5078C196.692 58.7005 197.929 57.6719 198.97 56.4219C200.012 55.1458 200.819 53.7266 201.392 52.1641C201.965 50.6016 202.252 49.0521 202.252 47.5156C202.252 46.6302 202.226 45.7188 202.173 44.7813C202.121 43.8438 201.952 42.9974 201.666 42.2422C201.379 41.4609 200.923 40.8359 200.298 40.3672C199.699 39.8724 198.827 39.625 197.681 39.625C197.317 39.625 196.822 39.638 196.197 39.6641C195.598 39.6901 194.999 39.7682 194.4 39.8984C193.801 40.0026 193.267 40.1719 192.798 40.4063C192.356 40.6406 192.134 40.9661 192.134 41.3828C192.134 41.4349 192.173 41.5521 192.252 41.7344C192.356 41.8906 192.46 42.0599 192.564 42.2422C192.668 42.4245 192.759 42.6068 192.837 42.7891C192.916 42.9453 192.955 43.0495 192.955 43.1016C192.955 43.1536 192.851 43.2969 192.642 43.5313C192.434 43.7396 192.265 43.8698 192.134 43.9219C190.832 44.2604 189.739 44.6901 188.853 45.2109C187.994 45.7057 187.304 46.3568 186.783 47.1641C186.288 47.9714 185.936 48.9349 185.728 50.0547C185.52 51.1745 185.416 52.4896 185.416 54ZM207.534 36.4219C207.534 36.2135 207.547 35.875 207.573 35.4063C207.573 34.9115 207.573 34.4036 207.573 33.8828C207.573 33.3359 207.586 32.8281 207.613 32.3594C207.613 31.8646 207.613 31.526 207.613 31.3438C207.899 30.7969 208.342 30.4063 208.941 30.1719C209.566 29.9115 210.23 29.7422 210.933 29.6641C211.662 29.5599 212.365 29.5208 213.042 29.5469C213.745 29.5729 214.318 29.5859 214.761 29.5859C215.334 29.5859 215.998 29.612 216.753 29.6641C217.534 29.7161 218.303 29.8203 219.058 29.9766C219.839 30.1068 220.607 30.3151 221.363 30.6016C222.118 30.862 222.782 31.2135 223.355 31.6563C223.954 32.0729 224.422 32.5938 224.761 33.2188C225.126 33.8177 225.308 34.5339 225.308 35.3672C225.308 36.3568 225.073 37.2552 224.605 38.0625C224.136 38.8438 223.55 39.5859 222.847 40.2891C222.17 40.9661 221.415 41.6042 220.581 42.2031C219.774 42.8021 219.019 43.388 218.316 43.9609C217.639 44.5339 217.066 45.1198 216.597 45.7188C216.128 46.3177 215.894 46.9688 215.894 47.6719C215.894 47.724 215.907 47.8021 215.933 47.9063C215.985 47.9844 216.011 48.0365 216.011 48.0625C219.084 48.974 222.066 50.0807 224.956 51.3828C227.873 52.6849 230.738 54.0911 233.55 55.6016C233.628 55.6536 233.706 55.7578 233.784 55.9141C233.889 56.0443 233.98 56.2135 234.058 56.4219C234.136 56.6042 234.214 56.7734 234.292 56.9297C234.37 57.0859 234.409 57.2161 234.409 57.3203C234.409 57.5547 234.344 57.737 234.214 57.8672C234.084 57.9714 233.928 58.0625 233.745 58.1406C233.563 58.1927 233.381 58.2188 233.198 58.2188C233.016 58.2188 232.86 58.2188 232.73 58.2188C231.323 58.2188 229.917 57.9193 228.511 57.3203C227.131 56.6953 225.738 56.0052 224.331 55.25C222.925 54.4948 221.493 53.8047 220.034 53.1797C218.602 52.5547 217.105 52.2422 215.542 52.2422H214.292C214.709 53.2057 215.073 54.0651 215.386 54.8203C215.724 55.5755 215.998 56.3047 216.206 57.0078C216.441 57.7109 216.61 58.4271 216.714 59.1563C216.844 59.8594 216.909 60.6276 216.909 61.4609C216.909 61.6432 216.909 61.8646 216.909 62.125C216.909 62.3594 216.896 62.6068 216.87 62.8672C216.844 63.1276 216.766 63.362 216.636 63.5703C216.506 63.7786 216.297 63.9219 216.011 64C214.943 63.375 213.98 62.4115 213.12 61.1094C212.287 59.7813 211.558 58.2708 210.933 56.5781C210.308 54.8854 209.774 53.0885 209.331 51.1875C208.915 49.2865 208.563 47.4245 208.277 45.6016C208.016 43.7526 207.821 42.0339 207.691 40.4453C207.586 38.8307 207.534 37.4896 207.534 36.4219ZM210.894 38.8828C210.894 39.2214 210.868 39.6641 210.816 40.2109C210.79 40.7318 210.79 41.2786 210.816 41.8516C210.842 42.3984 210.92 42.9323 211.05 43.4531C211.206 43.9479 211.454 44.3776 211.792 44.7422C211.844 44.7682 211.896 44.7813 211.948 44.7813C211.974 44.8073 212.04 44.8203 212.144 44.8203C212.613 44.8203 213.172 44.6771 213.823 44.3906C214.501 44.1042 215.204 43.7266 215.933 43.2578C216.662 42.7891 217.378 42.2552 218.081 41.6563C218.81 41.0313 219.461 40.3932 220.034 39.7422C220.607 39.0911 221.063 38.4401 221.402 37.7891C221.766 37.112 221.948 36.5 221.948 35.9531C221.948 35.4323 221.753 34.9896 221.363 34.625C220.972 34.2344 220.503 33.9219 219.956 33.6875C219.409 33.4531 218.836 33.2839 218.238 33.1797C217.665 33.0755 217.196 33.0234 216.831 33.0234C216.389 33.0234 215.868 33.0234 215.269 33.0234C214.67 32.9974 214.071 33.0365 213.472 33.1406C212.899 33.2188 212.378 33.375 211.909 33.6094C211.441 33.8438 211.115 34.1953 210.933 34.6641C210.933 34.8203 210.933 35.0938 210.933 35.4844C210.933 35.875 210.933 36.3047 210.933 36.7734C210.933 37.2161 210.92 37.6328 210.894 38.0234C210.894 38.4141 210.894 38.7005 210.894 38.8828ZM238.13 33.0234C237.999 33.0234 237.804 32.9974 237.544 32.9453C237.309 32.8672 237.062 32.7891 236.802 32.7109C236.541 32.6068 236.294 32.5156 236.059 32.4375C235.825 32.3333 235.669 32.2552 235.591 32.2031C235.565 32.151 235.552 32.099 235.552 32.0469C235.526 31.9948 235.512 31.9297 235.512 31.8516C235.512 31.487 235.656 31.1745 235.942 30.9141C236.229 30.6536 236.554 30.4453 236.919 30.2891C237.309 30.1068 237.687 29.9766 238.052 29.8984C238.416 29.7943 238.703 29.7292 238.911 29.7031H239.38H239.77C240.395 29.7552 241.19 29.8333 242.153 29.9375C243.117 30.0417 244.132 30.1589 245.2 30.2891C246.294 30.3932 247.387 30.5104 248.481 30.6406C249.601 30.7448 250.604 30.862 251.489 30.9922C252.401 31.0964 253.156 31.1875 253.755 31.2656C254.38 31.3177 254.744 31.3438 254.848 31.3438C255.057 31.3698 255.317 31.4219 255.63 31.5C255.968 31.5521 256.307 31.6563 256.645 31.8125C256.984 31.9427 257.296 32.112 257.583 32.3203C257.869 32.5026 258.078 32.737 258.208 33.0234C257.999 33.4401 257.817 33.7656 257.661 34C257.505 34.2083 257.335 34.3776 257.153 34.5078C256.971 34.612 256.776 34.6641 256.567 34.6641C256.385 34.6641 256.151 34.6641 255.864 34.6641C254.77 34.6641 253.664 34.625 252.544 34.5469C251.45 34.4688 250.356 34.3906 249.262 34.3125C248.169 34.2344 247.062 34.1563 245.942 34.0781C244.848 34 243.742 33.9609 242.622 33.9609C242.622 34.4297 242.557 35.1328 242.427 36.0703C242.322 37.0078 242.231 37.9974 242.153 39.0391C242.101 40.0807 242.127 41.1224 242.231 42.1641C242.361 43.1797 242.661 44.0391 243.13 44.7422C244.041 44.1953 244.992 43.9089 245.981 43.8828C246.971 43.8568 247.973 43.8438 248.989 43.8438C249.432 43.8438 249.992 43.8438 250.669 43.8438C251.346 43.8438 251.997 43.9219 252.622 44.0781C253.273 44.2344 253.82 44.4948 254.262 44.8594C254.705 45.224 254.927 45.7708 254.927 46.5C254.927 47.0208 254.822 47.4115 254.614 47.6719C254.406 47.9323 253.924 48.0625 253.169 48.0625C253.091 48.0625 252.921 48.0234 252.661 47.9453C252.427 47.8672 252.166 47.776 251.88 47.6719C251.619 47.5677 251.372 47.4766 251.137 47.3984C250.903 47.3203 250.747 47.2813 250.669 47.2813C250.643 47.2813 250.539 47.2813 250.356 47.2813C250.2 47.2552 250.005 47.2422 249.77 47.2422C249.536 47.2422 249.302 47.2422 249.067 47.2422C248.859 47.2161 248.69 47.2031 248.559 47.2031C247.96 47.2031 247.374 47.2422 246.802 47.3203C246.255 47.3984 245.773 47.5547 245.356 47.7891C244.94 48.0234 244.601 48.362 244.341 48.8047C244.106 49.2474 243.989 49.8203 243.989 50.5234C243.989 50.7578 244.015 51.1615 244.067 51.7344C244.119 52.3073 244.184 52.9453 244.262 53.6484C244.367 54.3255 244.497 55.0286 244.653 55.7578C244.809 56.487 245.018 57.1641 245.278 57.7891C245.539 58.388 245.825 58.8958 246.137 59.3125C246.476 59.7031 246.88 59.8984 247.348 59.8984C247.401 59.8984 247.531 59.8854 247.739 59.8594C247.947 59.8333 248.078 59.8203 248.13 59.8203C249.015 59.2214 249.901 58.5703 250.786 57.8672C251.697 57.1641 252.635 56.513 253.598 55.9141C254.562 55.2891 255.565 54.7682 256.606 54.3516C257.648 53.9089 258.729 53.6875 259.848 53.6875V55.6016C259.848 55.7057 259.588 55.9922 259.067 56.4609C258.572 56.9297 257.908 57.4766 257.075 58.1016C256.268 58.7266 255.356 59.3906 254.341 60.0938C253.325 60.7969 252.309 61.4479 251.294 62.0469C250.278 62.6198 249.302 63.1016 248.364 63.4922C247.453 63.8828 246.684 64.0781 246.059 64.0781C245.174 64.0781 244.38 63.6875 243.677 62.9063C242.999 62.099 242.387 61.0443 241.841 59.7422C241.294 58.4141 240.838 56.8906 240.473 55.1719C240.109 53.4531 239.783 51.6823 239.497 49.8594C239.236 48.0365 239.015 46.2266 238.833 44.4297C238.677 42.6068 238.546 40.9271 238.442 39.3906C238.338 37.8542 238.26 36.526 238.208 35.4063C238.182 34.2604 238.156 33.4661 238.13 33.0234Z" fill="black"/>
</svg>
