<svg xmlns="http://www.w3.org/2000/svg" fill="none" viewBox="0 0 40 24"><path fill="#fff" d="M0 4a4 4 0 0 1 4-4h32a4 4 0 0 1 4 4v16a4 4 0 0 1-4 4H4a4 4 0 0 1-4-4V4z"/><path fill="#FF5F00" d="M16.297 5.695h6.933v12.459h-6.933z"/><path fill="#EB001B" fill-rule="evenodd" d="M16.738 11.925a7.91 7.91 0 0 1 3.027-6.23 7.923 7.923 0 1 0 0 12.459 7.91 7.91 0 0 1-3.027-6.229z" clip-rule="evenodd"/><path fill="#F79E1B" fill-rule="evenodd" d="M32.586 11.925a7.923 7.923 0 0 1-12.82 6.229 7.923 7.923 0 0 0 0-12.46 7.923 7.923 0 0 1 12.82 6.23v.001z" clip-rule="evenodd"/></svg>