<svg width="66" height="66" viewBox="0 0 66 66" fill="none" xmlns="http://www.w3.org/2000/svg">
<path d="M45.9744 58.0078H22.1035C20.7063 58.0044 19.3673 57.4478 18.3793 56.4598C17.3912 55.4718 16.8347 54.1328 16.8313 52.7355V15.5538C16.8313 15.041 17.035 14.5492 17.3976 14.1866C17.7602 13.824 18.2521 13.6202 18.7649 13.6202H49.3157C49.8285 13.6202 50.3203 13.824 50.6829 14.1866C51.0455 14.5492 51.2493 15.041 51.2493 15.5538V52.7355C51.2458 54.1332 50.6889 55.4727 49.7004 56.4607C48.7118 57.4488 47.3721 58.0051 45.9744 58.0078V58.0078ZM20.6985 17.4874V52.7355C20.6988 53.1081 20.847 53.4653 21.1104 53.7287C21.3738 53.9921 21.731 54.1403 22.1035 54.1406H45.9744C46.3472 54.1406 46.7047 53.9926 46.9684 53.7292C47.2321 53.4657 47.3804 53.1083 47.3808 52.7355V17.4874H20.6985Z" fill="white"/>
<path d="M42.1601 17.4874H25.9179C25.4051 17.4874 24.9132 17.2837 24.5506 16.9211C24.188 16.5585 23.9843 16.0666 23.9843 15.5538V12.0398C23.9863 10.511 24.5947 9.04541 25.6758 7.96449C26.757 6.88356 28.2227 6.27557 29.7515 6.27387H38.3264C39.8552 6.27557 41.321 6.88356 42.4021 7.96449C43.4833 9.04541 44.0916 10.511 44.0937 12.0398V15.5538C44.0937 16.0666 43.8899 16.5585 43.5273 16.9211C43.1647 17.2837 42.6729 17.4874 42.1601 17.4874V17.4874ZM27.8515 13.6202H40.2265V12.0398C40.2258 11.5362 40.0253 11.0535 39.6691 10.6975C39.3129 10.3415 38.83 10.1414 38.3264 10.1411H29.7515C29.2482 10.1417 28.7656 10.342 28.4097 10.698C28.0537 11.0539 27.8534 11.5365 27.8528 12.0398L27.8515 13.6202Z" fill="white"/>
<path d="M34.039 50.606C33.5261 50.606 33.0343 50.4023 32.6717 50.0397C32.3091 49.6771 32.1054 49.1852 32.1054 48.6724V22.9569C32.1054 22.4441 32.3091 21.9523 32.6717 21.5897C33.0343 21.227 33.5261 21.0233 34.039 21.0233C34.5518 21.0233 35.0436 21.227 35.4062 21.5897C35.7688 21.9523 35.9726 22.4441 35.9726 22.9569V48.6724C35.9726 49.1852 35.7688 49.6771 35.4062 50.0397C35.0436 50.4023 34.5518 50.606 34.039 50.606V50.606Z" fill="white"/>
<path d="M27.0574 50.606C26.5446 50.606 26.0528 50.4023 25.6902 50.0397C25.3275 49.6771 25.1238 49.1852 25.1238 48.6724V22.9569C25.1238 22.4441 25.3275 21.9523 25.6902 21.5897C26.0528 21.227 26.5446 21.0233 27.0574 21.0233C27.5702 21.0233 28.0621 21.227 28.4247 21.5897C28.7873 21.9523 28.991 22.4441 28.991 22.9569V48.6724C28.991 49.1852 28.7873 49.6771 28.4247 50.0397C28.0621 50.4023 27.5702 50.606 27.0574 50.606V50.606Z" fill="white"/>
<path d="M41.0218 50.606C40.509 50.606 40.0172 50.4023 39.6546 50.0397C39.292 49.6771 39.0882 49.1852 39.0882 48.6724V22.9569C39.0882 22.4441 39.292 21.9523 39.6546 21.5897C40.0172 21.227 40.509 21.0233 41.0218 21.0233C41.5347 21.0233 42.0265 21.227 42.3891 21.5897C42.7517 21.9523 42.9554 22.4441 42.9554 22.9569V48.6724C42.9554 49.1852 42.7517 49.6771 42.3891 50.0397C42.0265 50.4023 41.5347 50.606 41.0218 50.606V50.606Z" fill="white"/>
<path d="M52.3114 17.4874H15.7678C15.255 17.4874 14.7632 17.2837 14.4006 16.9211C14.0379 16.5585 13.8342 16.0667 13.8342 15.5538C13.8342 15.041 14.0379 14.5492 14.4006 14.1866C14.7632 13.824 15.255 13.6202 15.7678 13.6202H52.3114C52.8243 13.6202 53.3161 13.824 53.6787 14.1866C54.0413 14.5492 54.245 15.041 54.245 15.5538C54.245 16.0667 54.0413 16.5585 53.6787 16.9211C53.3161 17.2837 52.8243 17.4874 52.3114 17.4874V17.4874Z" fill="white"/>
</svg>
